<?xml version="1.0" encoding="utf-8"?>
<!-- Generator: Adobe Illustrator 19.0.0, SVG Export Plug-In . SVG Version: 6.00 Build 0)  -->
<svg version="1.1" id="Capa_1" xmlns="http://www.w3.org/2000/svg" xmlns:xlink="http://www.w3.org/1999/xlink" x="0px" y="0px"
	 viewBox="-935 516.6 48.4 48.4" style="enable-background:new -935 516.6 48.4 48.4;" xml:space="preserve">
<style type="text/css">
	.st0{fill:#2196F3;}
</style>
<g>
	<g>
		<g>
			<circle class="st0" cx="-910.8" cy="540.8" r="4.2"/>
			<path class="st0" d="M-887.6,536.7l-5.8-1.1c-0.4-1.2-0.8-2.3-1.4-3.4l3.4-4.9c0.3-0.5,0.2-1.1-0.1-1.5l-4.2-4.2
				c-0.4-0.4-1.1-0.5-1.5-0.1l-4.9,3.4c-1.1-0.6-2.3-1.1-3.5-1.4l-1.1-5.8c-0.1-0.5-0.6-1-1.2-1h-5.9c-0.6,0-1.1,0.4-1.2,1l-1.1,5.9
				c-1.2,0.4-2.3,0.8-3.3,1.4l-4.9-3.3c-0.5-0.3-1.1-0.2-1.5,0.1l-4.2,4.2c-0.4,0.4-0.5,1.1-0.1,1.5l3.4,4.9c-0.6,1.1-1,2.2-1.4,3.3
				l-5.8,1.1c-0.5,0.1-1,0.6-1,1.2v5.9c0,0.6,0.4,1.1,1,1.2l5.8,1.1c0.4,1.2,0.8,2.3,1.4,3.4l-3.3,4.8c-0.3,0.5-0.2,1.1,0.1,1.5
				l4.2,4.2c0.4,0.4,1.1,0.5,1.5,0.1l4.8-3.3c1,0.6,2.1,1,3.3,1.4l1.1,5.9c0.1,0.5,0.6,1,1.2,1h5.9c0.6,0,1.1-0.4,1.2-1l1.1-5.8
				c1.2-0.4,2.4-0.8,3.4-1.4l4.9,3.4c0.5,0.3,1.1,0.2,1.5-0.1l4.2-4.2c0.4-0.4,0.5-1.1,0.1-1.5l-3.3-4.9c0.6-1.1,1.1-2.2,1.4-3.4
				l5.8-1.1c0.5-0.1,1-0.6,1-1.2v-5.9C-886.6,537.3-887.1,536.8-887.6,536.7z M-910.8,550.9c-5.6,0-10.1-4.5-10.1-10.1
				c0-5.6,4.5-10.1,10.1-10.1c5.6,0,10.1,4.5,10.1,10.1C-900.7,546.4-905.3,550.9-910.8,550.9z"/>
		</g>
	</g>
</g>
</svg>
