<?xml version="1.0" encoding="utf-8"?>
<!-- Generator: Adobe Illustrator 19.0.0, SVG Export Plug-In . SVG Version: 6.00 Build 0)  -->
<svg version="1.1" id="Layer_1" xmlns="http://www.w3.org/2000/svg" xmlns:xlink="http://www.w3.org/1999/xlink" x="0px" y="0px"
	 viewBox="150 -150 400 400" style="enable-background:new 150 -150 400 400;" xml:space="preserve">
<style type="text/css">
	.st0{fill:#2E3192;}
</style>
<g id="XMLID_215_">
	<g id="XMLID_796_">
		<path id="XMLID_927_" class="st0" d="M342.6-70.6c0.5,1.5,1.4,2.8,2.7,3.8L343-63c-0.3,0.5-0.1,1.1,0.4,1.4
			c0.2,0.1,0.3,0.1,0.5,0.1c0.4,0,0.7-0.2,0.9-0.5l2.2-3.8c0.9,0.4,1.9,0.6,3,0.6c1.1,0,2.1-0.2,3-0.6l2.2,3.8
			c0.2,0.3,0.5,0.5,0.9,0.5c0.2,0,0.4,0,0.5-0.1c0.5-0.3,0.7-0.9,0.4-1.4l-2.2-3.8c1.2-1,2.2-2.3,2.7-3.8c0.4-0.1,0.8-0.4,0.8-0.8
			c0.1-0.4-0.1-0.8-0.5-1.1c0-0.2,0.1-0.3,0.1-0.5c0-4-3-7.2-6.8-7.7v-5c0-0.6-0.5-1-1-1c-0.6,0-1,0.5-1,1v5
			c-3.8,0.5-6.8,3.8-6.8,7.7c0,0.2,0,0.3,0.1,0.5c-0.4,0.2-0.6,0.6-0.5,1.1C341.8-70.9,342.2-70.6,342.6-70.6z"/>
		<path id="XMLID_926_" class="st0" d="M463.9-52.1l-4.8-0.9c-0.6-0.1-1.1,0.3-1.2,0.8c-0.1,0.6,0.3,1.1,0.8,1.2l4.8,0.9
			c0.1,0,0.1,0,0.2,0c0.5,0,0.9-0.3,1-0.8C464.9-51.4,464.5-52,463.9-52.1z"/>
		<path id="XMLID_925_" class="st0" d="M361.9-69.6l4.8,0.9c0.1,0,0.1,0,0.2,0c0.5,0,0.9-0.3,1-0.8c0.1-0.6-0.3-1.1-0.8-1.2
			l-4.8-0.9c-0.6-0.1-1.1,0.3-1.2,0.8C361-70.3,361.4-69.7,361.9-69.6z"/>
		<path id="XMLID_924_" class="st0" d="M313.7-64.9c0.1,0,0.1,0,0.2,0l4.8-0.9c0.6-0.1,0.9-0.6,0.8-1.2c-0.1-0.6-0.6-0.9-1.2-0.8
			l-4.8,0.9c-0.6,0.1-0.9,0.6-0.8,1.2C312.8-65.3,313.2-64.9,313.7-64.9z"/>
		<path id="XMLID_923_" class="st0" d="M454.3-53.9l-4.8-0.9c-0.6-0.1-1.1,0.3-1.2,0.8c-0.1,0.6,0.3,1.1,0.8,1.2l4.8,0.9
			c0.1,0,0.1,0,0.2,0c0.5,0,0.9-0.3,1-0.8C455.2-53.3,454.8-53.8,454.3-53.9z"/>
		<path id="XMLID_922_" class="st0" d="M333.1-68.7c0.1,0,0.1,0,0.2,0l4.8-0.9c0.6-0.1,0.9-0.6,0.8-1.2c-0.1-0.6-0.6-0.9-1.2-0.8
			l-4.8,0.9c-0.6,0.1-0.9,0.6-0.8,1.2C332.1-69,332.6-68.7,333.1-68.7z"/>
		<path id="XMLID_921_" class="st0" d="M304-63.1c0.1,0,0.1,0,0.2,0L309-64c0.6-0.1,0.9-0.6,0.8-1.2c-0.1-0.6-0.6-0.9-1.2-0.8
			l-4.8,0.9c-0.6,0.1-0.9,0.6-0.8,1.2C303.1-63.4,303.5-63.1,304-63.1z"/>
		<path id="XMLID_920_" class="st0" d="M323.4-66.8c0.1,0,0.1,0,0.2,0l4.8-0.9c0.6-0.1,0.9-0.6,0.8-1.2c-0.1-0.6-0.6-0.9-1.2-0.8
			l-4.8,0.9c-0.6,0.1-0.9,0.6-0.8,1.2C322.5-67.2,322.9-66.8,323.4-66.8z"/>
		<path id="XMLID_919_" class="st0" d="M434.9-57.7l-4.8-0.9c-0.6-0.1-1.1,0.3-1.2,0.8c-0.1,0.6,0.3,1.1,0.8,1.2l4.8,0.9
			c0.1,0,0.1,0,0.2,0c0.5,0,0.9-0.3,1-0.8S435.5-57.6,434.9-57.7z"/>
		<path id="XMLID_918_" class="st0" d="M255.6-53.8c0.1,0,0.1,0,0.2,0l4.8-0.9c0.6-0.1,0.9-0.6,0.8-1.2s-0.6-0.9-1.2-0.8l-4.8,0.9
			c-0.6,0.1-0.9,0.6-0.8,1.2C254.7-54.1,255.1-53.8,255.6-53.8z"/>
		<path id="XMLID_917_" class="st0" d="M226.6-48.2c0.1,0,0.1,0,0.2,0l4.8-0.9c0.6-0.1,0.9-0.6,0.8-1.2c-0.1-0.6-0.6-0.9-1.2-0.8
			l-4.8,0.9c-0.6,0.1-0.9,0.6-0.8,1.2C225.7-48.5,226.1-48.2,226.6-48.2z"/>
		<path id="XMLID_916_" class="st0" d="M245.9-51.9c0.1,0,0.1,0,0.2,0l4.8-0.9c0.6-0.1,0.9-0.6,0.8-1.2c-0.1-0.6-0.6-0.9-1.2-0.8
			l-4.8,0.9c-0.6,0.1-0.9,0.6-0.8,1.2C245-52.2,245.4-51.9,245.9-51.9z"/>
		<path id="XMLID_915_" class="st0" d="M371.6-67.8l4.8,0.9c0.1,0,0.1,0,0.2,0c0.5,0,0.9-0.3,1-0.8c0.1-0.6-0.3-1.1-0.8-1.2
			l-4.8-0.9c-0.6-0.1-1.1,0.3-1.2,0.8C370.7-68.4,371-67.9,371.6-67.8z"/>
		<path id="XMLID_914_" class="st0" d="M265.3-55.6c0.1,0,0.1,0,0.2,0l4.8-0.9c0.6-0.1,0.9-0.6,0.8-1.2s-0.6-0.9-1.2-0.8l-4.8,0.9
			c-0.6,0.1-0.9,0.6-0.8,1.2C264.4-56,264.8-55.6,265.3-55.6z"/>
		<path id="XMLID_913_" class="st0" d="M444.6-55.8l-4.8-0.9c-0.6-0.1-1.1,0.3-1.2,0.8c-0.1,0.6,0.3,1.1,0.8,1.2l4.8,0.9
			c0.1,0,0.1,0,0.2,0c0.5,0,0.9-0.3,1-0.8C445.5-55.2,445.1-55.7,444.6-55.8z"/>
		<path id="XMLID_912_" class="st0" d="M381.3-65.9l4.8,0.9c0.1,0,0.1,0,0.2,0c0.5,0,0.9-0.3,1-0.8c0.1-0.6-0.3-1.1-0.8-1.2
			l-4.8-0.9c-0.6-0.1-1.1,0.3-1.2,0.8C380.3-66.5,380.7-66,381.3-65.9z"/>
		<path id="XMLID_911_" class="st0" d="M236.2-50c0.1,0,0.1,0,0.2,0l4.8-0.9c0.6-0.1,0.9-0.6,0.8-1.2s-0.6-0.9-1.2-0.8L236-52
			c-0.6,0.1-0.9,0.6-0.8,1.2C235.3-50.4,235.8-50,236.2-50z"/>
		<path id="XMLID_910_" class="st0" d="M216.9-46.3c0.1,0,0.1,0,0.2,0l4.8-0.9c0.6-0.1,0.9-0.6,0.8-1.2c-0.1-0.6-0.6-0.9-1.2-0.8
			l-4.8,0.9c-0.6,0.1-0.9,0.6-0.8,1.2C216-46.7,216.4-46.3,216.9-46.3z"/>
		<path id="XMLID_909_" class="st0" d="M390.9-64l4.8,0.9c0.1,0,0.1,0,0.2,0c0.5,0,0.9-0.3,1-0.8c0.1-0.6-0.3-1.1-0.8-1.2l-4.8-0.9
			c-0.6-0.1-1.1,0.3-1.2,0.8C390-64.7,390.4-64.1,390.9-64z"/>
		<path id="XMLID_908_" class="st0" d="M473.6-50.2l-4.8-0.9c-0.6-0.1-1.1,0.3-1.2,0.8c-0.1,0.6,0.3,1.1,0.8,1.2l4.8,0.9
			c0.1,0,0.1,0,0.2,0c0.5,0,0.9-0.3,1-0.8C474.5-49.6,474.2-50.1,473.6-50.2z"/>
		<path id="XMLID_907_" class="st0" d="M483.3-48.4l-4.8-0.9c-0.6-0.1-1.1,0.3-1.2,0.8c-0.1,0.6,0.3,1.1,0.8,1.2l4.8,0.9
			c0.1,0,0.1,0,0.2,0c0.5,0,0.9-0.3,1-0.8C484.2-47.7,483.9-48.2,483.3-48.4z"/>
		<path id="XMLID_906_" class="st0" d="M466.6,82.2c0.1,0,0.2,0.1,0.3,0.1c0.4,0,0.8-0.3,1-0.7l1.6-4.7c0.2-0.5-0.1-1.1-0.6-1.3
			s-1.1,0.1-1.3,0.6l-1.6,4.7C465.8,81.4,466.1,82,466.6,82.2z"/>
		<path id="XMLID_905_" class="st0" d="M491.5,10.4c-0.5-0.2-1.1,0.1-1.3,0.6l-1.6,4.7c-0.2,0.5,0.1,1.1,0.6,1.3
			c0.1,0,0.2,0.1,0.3,0.1c0.4,0,0.8-0.3,1-0.7l1.6-4.7C492.3,11.1,492,10.6,491.5,10.4z"/>
		<path id="XMLID_904_" class="st0" d="M428.3,142.5l-3.2,3.7c-0.4,0.4-0.3,1.1,0.1,1.4c0.2,0.2,0.4,0.3,0.7,0.3
			c0.3,0,0.6-0.1,0.8-0.4l3.2-3.7c0.4-0.4,0.3-1.1-0.1-1.4C429.3,142,428.7,142.1,428.3,142.5z"/>
		<path id="XMLID_903_" class="st0" d="M488.3,19.7c-0.5-0.2-1.1,0.1-1.3,0.6l-1.6,4.7c-0.2,0.5,0.1,1.1,0.6,1.3
			c0.1,0,0.2,0.1,0.3,0.1c0.4,0,0.8-0.3,1-0.7l1.6-4.7C489.1,20.5,488.8,19.9,488.3,19.7z"/>
		<path id="XMLID_902_" class="st0" d="M469.9,72.9c0.1,0,0.2,0.1,0.3,0.1c0.4,0,0.8-0.3,1-0.7l1.6-4.7c0.2-0.5-0.1-1.1-0.6-1.3
			s-1.1,0.1-1.3,0.6l-1.6,4.7C469,72.1,469.3,72.7,469.9,72.9z"/>
		<path id="XMLID_901_" class="st0" d="M485.1,29c-0.5-0.2-1.1,0.1-1.3,0.6l-1.6,4.7c-0.2,0.5,0.1,1.1,0.6,1.3
			c0.1,0,0.2,0.1,0.3,0.1c0.4,0,0.8-0.3,1-0.7l1.6-4.7C485.9,29.8,485.6,29.2,485.1,29z"/>
		<path id="XMLID_900_" class="st0" d="M501.2-17.6c-0.5-0.2-1.1,0.1-1.3,0.6l-1.6,4.7c-0.2,0.5,0.1,1.1,0.6,1.3
			c0.1,0,0.2,0.1,0.3,0.1c0.4,0,0.8-0.3,1-0.7l1.6-4.7C502-16.8,501.7-17.4,501.2-17.6z"/>
		<path id="XMLID_899_" class="st0" d="M400,177.7c0.3,0,0.6-0.1,0.8-0.4l3.2-3.7c0.4-0.4,0.3-1.1-0.1-1.4c-0.4-0.4-1.1-0.3-1.4,0.1
			l-3.2,3.7c-0.4,0.4-0.3,1.1,0.1,1.4C399.5,177.6,399.8,177.7,400,177.7z"/>
		<path id="XMLID_898_" class="st0" d="M374.2,207.5c0.3,0,0.6-0.1,0.8-0.4l3.2-3.7c0.4-0.4,0.3-1.1-0.1-1.4
			c-0.4-0.4-1.1-0.3-1.4,0.1l-3.2,3.7c-0.4,0.4-0.3,1.1,0.1,1.4C373.7,207.4,374,207.5,374.2,207.5z"/>
		<path id="XMLID_897_" class="st0" d="M463.4,91.5c0.1,0,0.2,0.1,0.3,0.1c0.4,0,0.8-0.3,1-0.7l1.6-4.7c0.2-0.5-0.1-1.1-0.6-1.3
			s-1.1,0.1-1.3,0.6l-1.6,4.7C462.6,90.7,462.9,91.3,463.4,91.5z"/>
		<path id="XMLID_896_" class="st0" d="M460.2,100.8c0.1,0,0.2,0.1,0.3,0.1c0.4,0,0.8-0.3,1-0.7l1.6-4.7c0.2-0.5-0.1-1.1-0.6-1.3
			s-1.1,0.1-1.3,0.6l-1.6,4.7C459.4,100,459.7,100.6,460.2,100.8z"/>
		<path id="XMLID_895_" class="st0" d="M494.7,1.1c-0.5-0.2-1.1,0.1-1.3,0.6l-1.6,4.7c-0.2,0.5,0.1,1.1,0.6,1.3
			c0.1,0,0.2,0.1,0.3,0.1c0.4,0,0.8-0.3,1-0.7l1.6-4.7C495.6,1.8,495.3,1.2,494.7,1.1z"/>
		<path id="XMLID_894_" class="st0" d="M498-8.3c-0.5-0.2-1.1,0.1-1.3,0.6L495-3c-0.2,0.5,0.1,1.1,0.6,1.3c0.1,0,0.2,0.1,0.3,0.1
			c0.4,0,0.8-0.3,1-0.7l1.6-4.7C498.8-7.5,498.5-8.1,498-8.3z"/>
		<path id="XMLID_893_" class="st0" d="M447.6,120.1l-3.2,3.7c-0.4,0.4-0.3,1.1,0.1,1.4c0.2,0.2,0.4,0.3,0.7,0.3
			c0.3,0,0.6-0.1,0.8-0.4l3.2-3.7c0.4-0.4,0.3-1.1-0.1-1.4S448,119.7,447.6,120.1z"/>
		<path id="XMLID_892_" class="st0" d="M441.2,127.6l-3.2,3.7c-0.4,0.4-0.3,1.1,0.1,1.4c0.2,0.2,0.4,0.3,0.7,0.3
			c0.3,0,0.6-0.1,0.8-0.4l3.2-3.7c0.4-0.4,0.3-1.1-0.1-1.4C442.2,127.1,441.6,127.2,441.2,127.6z"/>
		<path id="XMLID_891_" class="st0" d="M393.6,185.2c0.3,0,0.6-0.1,0.8-0.4l3.2-3.7c0.4-0.4,0.3-1.1-0.1-1.4
			c-0.4-0.4-1.1-0.3-1.4,0.1l-3.2,3.7c-0.4,0.4-0.3,1.1,0.1,1.4C393.1,185.1,393.3,185.2,393.6,185.2z"/>
		<path id="XMLID_890_" class="st0" d="M380.7,200.1c0.3,0,0.6-0.1,0.8-0.4l3.2-3.7c0.4-0.4,0.3-1.1-0.1-1.4
			c-0.4-0.4-1.1-0.3-1.4,0.1l-3.2,3.7c-0.4,0.4-0.3,1.1,0.1,1.4C380.2,200,380.4,200.1,380.7,200.1z"/>
		<path id="XMLID_889_" class="st0" d="M387.1,192.6c0.3,0,0.6-0.1,0.8-0.4l3.2-3.7c0.4-0.4,0.3-1.1-0.1-1.4
			c-0.4-0.4-1.1-0.3-1.4,0.1l-3.2,3.7c-0.4,0.4-0.3,1.1,0.1,1.4C386.6,192.5,386.9,192.6,387.1,192.6z"/>
		<path id="XMLID_888_" class="st0" d="M367.7,215c0.3,0,0.6-0.1,0.8-0.4l3.2-3.7c0.4-0.4,0.3-1.1-0.1-1.4c-0.4-0.4-1.1-0.3-1.4,0.1
			l-3.2,3.7c-0.4,0.4-0.3,1.1,0.1,1.4C367.3,214.9,367.5,215,367.7,215z"/>
		<path id="XMLID_887_" class="st0" d="M434.7,135l-3.2,3.7c-0.4,0.4-0.3,1.1,0.1,1.4c0.2,0.2,0.4,0.3,0.7,0.3
			c0.3,0,0.6-0.1,0.8-0.4l3.2-3.7c0.4-0.4,0.3-1.1-0.1-1.4C435.8,134.6,435.1,134.6,434.7,135z"/>
		<path id="XMLID_886_" class="st0" d="M233.7,86.2l1.6,4.7c0.1,0.4,0.5,0.7,1,0.7c0.1,0,0.2,0,0.3-0.1c0.5-0.2,0.8-0.8,0.6-1.3
			l-1.6-4.7c-0.2-0.5-0.8-0.8-1.3-0.6C233.8,85.1,233.5,85.7,233.7,86.2z"/>
		<path id="XMLID_885_" class="st0" d="M252.4,120.1c-0.4-0.4-1-0.5-1.4-0.1s-0.5,1-0.1,1.4l3.2,3.7c0.2,0.2,0.5,0.4,0.8,0.4
			c0.2,0,0.5-0.1,0.7-0.3c0.4-0.4,0.5-1,0.1-1.4L252.4,120.1z"/>
		<path id="XMLID_884_" class="st0" d="M236.9,95.5l1.6,4.7c0.1,0.4,0.5,0.7,1,0.7c0.1,0,0.2,0,0.3-0.1c0.5-0.2,0.8-0.8,0.6-1.3
			l-1.6-4.7c-0.2-0.5-0.8-0.8-1.3-0.6C237,94.4,236.7,95,236.9,95.5z"/>
		<path id="XMLID_883_" class="st0" d="M208.2,6.3l-1.6-4.7c-0.2-0.5-0.8-0.8-1.3-0.6s-0.8,0.8-0.6,1.3l1.6,4.7
			c0.1,0.4,0.5,0.7,1,0.7c0.1,0,0.2,0,0.3-0.1C208.1,7.5,208.4,6.9,208.2,6.3z"/>
		<path id="XMLID_882_" class="st0" d="M316.9,194.7c-0.4-0.4-1-0.5-1.4-0.1s-0.5,1-0.1,1.4l3.2,3.7c0.2,0.2,0.5,0.4,0.8,0.4
			c0.2,0,0.5-0.1,0.7-0.3c0.4-0.4,0.5-1,0.1-1.4L316.9,194.7z"/>
		<path id="XMLID_881_" class="st0" d="M258.8,127.6c-0.4-0.4-1-0.5-1.4-0.1s-0.5,1-0.1,1.4l3.2,3.7c0.2,0.2,0.5,0.4,0.8,0.4
			c0.2,0,0.5-0.1,0.7-0.3c0.4-0.4,0.5-1,0.1-1.4L258.8,127.6z"/>
		<path id="XMLID_880_" class="st0" d="M205-3l-1.6-4.7c-0.2-0.5-0.8-0.8-1.3-0.6s-0.8,0.8-0.6,1.3l1.6,4.7c0.1,0.4,0.5,0.7,1,0.7
			c0.1,0,0.2,0,0.3-0.1C204.9-1.8,205.1-2.4,205-3z"/>
		<path id="XMLID_879_" class="st0" d="M201.7-12.3l-1.6-4.7c-0.2-0.5-0.8-0.8-1.3-0.6s-0.8,0.8-0.6,1.3l1.6,4.7
			c0.1,0.4,0.5,0.7,1,0.7c0.1,0,0.2,0,0.3-0.1C201.6-11.2,201.9-11.7,201.7-12.3z"/>
		<path id="XMLID_878_" class="st0" d="M230.1,72.9c0.5-0.2,0.8-0.8,0.6-1.3l-1.6-4.7c-0.2-0.5-0.8-0.8-1.3-0.6s-0.8,0.8-0.6,1.3
			l1.6,4.7c0.1,0.4,0.5,0.7,1,0.7C229.9,72.9,230,72.9,230.1,72.9z"/>
		<path id="XMLID_877_" class="st0" d="M230.4,76.9l1.6,4.7c0.1,0.4,0.5,0.7,1,0.7c0.1,0,0.2,0,0.3-0.1c0.5-0.2,0.8-0.8,0.6-1.3
			l-1.6-4.7c-0.2-0.5-0.8-0.8-1.3-0.6C230.5,75.8,230.3,76.3,230.4,76.9z"/>
		<path id="XMLID_876_" class="st0" d="M329.8,209.6c-0.4-0.4-1-0.5-1.4-0.1c-0.4,0.4-0.5,1-0.1,1.4l3.2,3.7
			c0.2,0.2,0.5,0.4,0.8,0.4c0.2,0,0.5-0.1,0.7-0.3c0.4-0.4,0.5-1,0.1-1.4L329.8,209.6z"/>
		<path id="XMLID_875_" class="st0" d="M304,179.7c-0.4-0.4-1-0.5-1.4-0.1s-0.5,1-0.1,1.4l3.2,3.7c0.2,0.2,0.5,0.4,0.8,0.4
			c0.2,0,0.5-0.1,0.7-0.3c0.4-0.4,0.5-1,0.1-1.4L304,179.7z"/>
		<path id="XMLID_874_" class="st0" d="M310.4,187.2c-0.4-0.4-1-0.5-1.4-0.1s-0.5,1-0.1,1.4l3.2,3.7c0.2,0.2,0.5,0.4,0.8,0.4
			c0.2,0,0.5-0.1,0.7-0.3c0.4-0.4,0.5-1,0.1-1.4L310.4,187.2z"/>
		<path id="XMLID_873_" class="st0" d="M265.3,135c-0.4-0.4-1-0.5-1.4-0.1s-0.5,1-0.1,1.4l3.2,3.7c0.2,0.2,0.5,0.4,0.8,0.4
			c0.2,0,0.5-0.1,0.7-0.3c0.4-0.4,0.5-1,0.1-1.4L265.3,135z"/>
		<path id="XMLID_872_" class="st0" d="M297.5,172.3c-0.4-0.4-1-0.5-1.4-0.1s-0.5,1-0.1,1.4l3.2,3.7c0.2,0.2,0.5,0.4,0.8,0.4
			c0.2,0,0.5-0.1,0.7-0.3c0.4-0.4,0.5-1,0.1-1.4L297.5,172.3z"/>
		<path id="XMLID_871_" class="st0" d="M323.4,202.1c-0.4-0.4-1-0.5-1.4-0.1s-0.5,1-0.1,1.4l3.2,3.7c0.2,0.2,0.5,0.4,0.8,0.4
			c0.2,0,0.5-0.1,0.7-0.3c0.4-0.4,0.5-1,0.1-1.4L323.4,202.1z"/>
		<path id="XMLID_870_" class="st0" d="M271.7,142.5c-0.4-0.4-1-0.5-1.4-0.1c-0.4,0.4-0.5,1-0.1,1.4l3.2,3.7
			c0.2,0.2,0.5,0.4,0.8,0.4c0.2,0,0.5-0.1,0.7-0.3c0.4-0.4,0.5-1,0.1-1.4L271.7,142.5z"/>
		<path id="XMLID_869_" class="st0" d="M217.9,34.3l-1.6-4.7c-0.2-0.5-0.8-0.8-1.3-0.6s-0.8,0.8-0.6,1.3L216,35
			c0.1,0.4,0.5,0.7,1,0.7c0.1,0,0.2,0,0.3-0.1C217.8,35.4,218,34.8,217.9,34.3z"/>
		<path id="XMLID_868_" class="st0" d="M211.4,15.7l-1.6-4.7c-0.2-0.5-0.8-0.8-1.3-0.6s-0.8,0.8-0.6,1.3l1.6,4.7
			c0.1,0.4,0.5,0.7,1,0.7c0.1,0,0.2,0,0.3-0.1C211.3,16.8,211.6,16.2,211.4,15.7z"/>
		<path id="XMLID_867_" class="st0" d="M214.6,25l-1.6-4.7c-0.2-0.5-0.8-0.8-1.3-0.6s-0.8,0.8-0.6,1.3l1.6,4.7
			c0.1,0.4,0.5,0.7,1,0.7c0.1,0,0.2,0,0.3-0.1C214.5,26.1,214.8,25.5,214.6,25z"/>
		<path id="XMLID_866_" class="st0" d="M400.8,110.5H396c-0.6,0-1,0.5-1,1c0,0.6,0.5,1,1,1h4.8c0.6,0,1-0.5,1-1
			C401.8,110.9,401.4,110.5,400.8,110.5z"/>
		<path id="XMLID_865_" class="st0" d="M410.5,110.5h-4.8c-0.6,0-1,0.5-1,1c0,0.6,0.5,1,1,1h4.8c0.6,0,1-0.5,1-1
			C411.5,110.9,411,110.5,410.5,110.5z"/>
		<path id="XMLID_864_" class="st0" d="M420.2,110.5h-4.8c-0.6,0-1,0.5-1,1s0.5,1,1,1h4.8c0.6,0,1-0.5,1-1S420.7,110.5,420.2,110.5z
			"/>
		<path id="XMLID_863_" class="st0" d="M425,112.5h4.8c0.6,0,1-0.5,1-1c0-0.6-0.5-1-1-1H425c-0.6,0-1,0.5-1,1S424.4,112.5,425,112.5
			z"/>
		<path id="XMLID_862_" class="st0" d="M443.3,111.5c0,0.6,0.5,1,1,1h4.4c0.2,1.6,0.9,3,1.9,4.2c-0.2,0.4-0.1,0.9,0.3,1.1
			c0.2,0.2,0.4,0.3,0.7,0.3c0.2,0,0.3-0.1,0.5-0.1c1.3,0.8,2.8,1.3,4.4,1.3c4.3,0,7.8-3.5,7.8-7.8c0-3.1-1.8-5.7-4.4-7
			c0-0.4-0.3-0.8-0.7-0.9c-0.4-0.1-0.8,0-1.1,0.3c-0.5-0.1-1.1-0.2-1.6-0.2c-1.1,0-2.1,0.2-3,0.6l-2.2-3.8c-0.3-0.5-0.9-0.7-1.4-0.4
			s-0.7,0.9-0.4,1.4l2.2,3.8c-1.6,1.2-2.7,3.1-3,5.1h-4.4C443.8,110.5,443.3,110.9,443.3,111.5z"/>
		<path id="XMLID_861_" class="st0" d="M433.6,111.5c0,0.6,0.5,1,1,1h4.8c0.6,0,1-0.5,1-1c0-0.6-0.5-1-1-1h-4.8
			C434.1,110.5,433.6,110.9,433.6,111.5z"/>
		<path id="XMLID_860_" class="st0" d="M352.4,110.5h-4.8c-0.6,0-1,0.5-1,1c0,0.6,0.5,1,1,1h4.8c0.6,0,1-0.5,1-1
			S353,110.5,352.4,110.5z"/>
		<path id="XMLID_859_" class="st0" d="M333.1,110.5h-4.8c-0.6,0-1,0.5-1,1s0.5,1,1,1h4.8c0.6,0,1-0.5,1-1S333.6,110.5,333.1,110.5z
			"/>
		<path id="XMLID_858_" class="st0" d="M284.7,110.5h-4.8c-0.6,0-1,0.5-1,1c0,0.6,0.5,1,1,1h4.8c0.6,0,1-0.5,1-1
			C285.7,110.9,285.2,110.5,284.7,110.5z"/>
		<path id="XMLID_857_" class="st0" d="M294.4,110.5h-4.8c-0.6,0-1,0.5-1,1c0,0.6,0.5,1,1,1h4.8c0.6,0,1-0.5,1-1
			C295.4,110.9,294.9,110.5,294.4,110.5z"/>
		<path id="XMLID_856_" class="st0" d="M304,110.5h-4.8c-0.6,0-1,0.5-1,1c0,0.6,0.5,1,1,1h4.8c0.6,0,1-0.5,1-1
			C305.1,110.9,304.6,110.5,304,110.5z"/>
		<path id="XMLID_855_" class="st0" d="M371.8,110.5H367c-0.6,0-1,0.5-1,1s0.5,1,1,1h4.8c0.6,0,1-0.5,1-1S372.3,110.5,371.8,110.5z"
			/>
		<path id="XMLID_854_" class="st0" d="M362.1,110.5h-4.8c-0.6,0-1,0.5-1,1s0.5,1,1,1h4.8c0.6,0,1-0.5,1-1S362.7,110.5,362.1,110.5z
			"/>
		<path id="XMLID_853_" class="st0" d="M342.7,110.5h-4.8c-0.6,0-1,0.5-1,1c0,0.6,0.5,1,1,1h4.8c0.6,0,1-0.5,1-1
			C343.8,110.9,343.3,110.5,342.7,110.5z"/>
		<path id="XMLID_852_" class="st0" d="M275,110.5h-4.8c-0.6,0-1,0.5-1,1s0.5,1,1,1h4.8c0.6,0,1-0.5,1-1
			C276,110.9,275.6,110.5,275,110.5z"/>
		<path id="XMLID_851_" class="st0" d="M259.5,111.5c0,0.6,0.5,1,1,1h4.8c0.6,0,1-0.5,1-1s-0.5-1-1-1h-4.8
			C259.9,110.5,259.5,110.9,259.5,111.5z"/>
		<path id="XMLID_850_" class="st0" d="M255.7,110.5h-4.4c-0.3-2.1-1.4-3.9-3-5.2l2.2-3.8c0.3-0.5,0.1-1.1-0.4-1.4
			c-0.5-0.3-1.1-0.1-1.4,0.4l-2.2,3.8c-0.9-0.4-1.9-0.6-3-0.6c-0.6,0-1.1,0.1-1.6,0.2c-0.3-0.3-0.7-0.4-1.1-0.3
			c-0.4,0.1-0.7,0.5-0.7,0.9c-2.6,1.3-4.4,3.9-4.4,7c0,4.3,3.5,7.8,7.8,7.8c1.6,0,3.1-0.5,4.4-1.3c0.1,0.1,0.3,0.1,0.5,0.1
			c0.2,0,0.5-0.1,0.7-0.3c0.3-0.3,0.4-0.7,0.3-1.1c1-1.1,1.7-2.6,1.9-4.2h4.4c0.6,0,1-0.5,1-1C256.7,110.9,256.2,110.5,255.7,110.5z
			"/>
		<path id="XMLID_849_" class="st0" d="M393.2-0.1c-0.3-0.5-0.9-0.7-1.4-0.4s-0.7,0.9-0.4,1.4l2.4,4.2c0.2,0.3,0.5,0.5,0.9,0.5
			c0.2,0,0.4,0,0.5-0.1c0.5-0.3,0.7-0.9,0.4-1.4L393.2-0.1z"/>
		<path id="XMLID_848_" class="st0" d="M447.1,97.3c0.2,0.3,0.5,0.5,0.9,0.5c0.2,0,0.4,0,0.5-0.1c0.5-0.3,0.7-0.9,0.4-1.4l-2.4-4.2
			c-0.3-0.5-0.9-0.7-1.4-0.4s-0.7,0.9-0.4,1.4L447.1,97.3z"/>
		<path id="XMLID_847_" class="st0" d="M427.8,63.8c0.2,0.3,0.5,0.5,0.9,0.5c0.2,0,0.4,0,0.5-0.1c0.5-0.3,0.7-0.9,0.4-1.4l-2.4-4.2
			c-0.3-0.5-0.9-0.7-1.4-0.4s-0.7,0.9-0.4,1.4L427.8,63.8z"/>
		<path id="XMLID_846_" class="st0" d="M398.1,8.3c-0.3-0.5-0.9-0.7-1.4-0.4s-0.7,0.9-0.4,1.4l2.4,4.2c0.2,0.3,0.5,0.5,0.9,0.5
			c0.2,0,0.4,0,0.5-0.1c0.5-0.3,0.7-0.9,0.4-1.4L398.1,8.3z"/>
		<path id="XMLID_845_" class="st0" d="M412.6,33.4c-0.3-0.5-0.9-0.7-1.4-0.4s-0.7,0.9-0.4,1.4l2.4,4.2c0.2,0.3,0.5,0.5,0.9,0.5
			c0.2,0,0.4,0,0.5-0.1c0.5-0.3,0.7-0.9,0.4-1.4L412.6,33.4z"/>
		<path id="XMLID_844_" class="st0" d="M407.8,25c-0.3-0.5-0.9-0.7-1.4-0.4s-0.7,0.9-0.4,1.4l2.4,4.2c0.2,0.3,0.5,0.5,0.9,0.5
			c0.2,0,0.4,0,0.5-0.1c0.5-0.3,0.7-0.9,0.4-1.4L407.8,25z"/>
		<path id="XMLID_843_" class="st0" d="M402.9,16.7c-0.3-0.5-0.9-0.7-1.4-0.4s-0.7,0.9-0.4,1.4l2.4,4.2c0.2,0.3,0.5,0.5,0.9,0.5
			c0.2,0,0.4,0,0.5-0.1c0.5-0.3,0.7-0.9,0.4-1.4L402.9,16.7z"/>
		<path id="XMLID_842_" class="st0" d="M357.6-57.7l2.4,4.2c0.2,0.3,0.5,0.5,0.9,0.5c0.2,0,0.4,0,0.5-0.1c0.5-0.3,0.7-0.9,0.4-1.4
			l-2.4-4.2c-0.3-0.5-0.9-0.7-1.4-0.4C357.5-58.9,357.3-58.2,357.6-57.7z"/>
		<path id="XMLID_841_" class="st0" d="M373.9-33.6c-0.3-0.5-0.9-0.7-1.4-0.4c-0.5,0.3-0.7,0.9-0.4,1.4l2.4,4.2
			c0.2,0.3,0.5,0.5,0.9,0.5c0.2,0,0.4,0,0.5-0.1c0.5-0.3,0.7-0.9,0.4-1.4L373.9-33.6z"/>
		<path id="XMLID_840_" class="st0" d="M377-24.2l2.4,4.2c0.2,0.3,0.5,0.5,0.9,0.5c0.2,0,0.4,0,0.5-0.1c0.5-0.3,0.7-0.9,0.4-1.4
			l-2.4-4.2c-0.3-0.5-0.9-0.7-1.4-0.4C376.8-25.3,376.7-24.7,377-24.2z"/>
		<path id="XMLID_839_" class="st0" d="M364.2-50.4c-0.3-0.5-0.9-0.7-1.4-0.4c-0.5,0.3-0.7,0.9-0.4,1.4l2.4,4.2
			c0.2,0.3,0.5,0.5,0.9,0.5c0.2,0,0.4,0,0.5-0.1c0.5-0.3,0.7-0.9,0.4-1.4L364.2-50.4z"/>
		<path id="XMLID_838_" class="st0" d="M442.3,88.9c0.2,0.3,0.5,0.5,0.9,0.5c0.2,0,0.4,0,0.5-0.1c0.5-0.3,0.7-0.9,0.4-1.4l-2.4-4.2
			c-0.3-0.5-0.9-0.7-1.4-0.4s-0.7,0.9-0.4,1.4L442.3,88.9z"/>
		<path id="XMLID_837_" class="st0" d="M367.3-41l2.4,4.2c0.2,0.3,0.5,0.5,0.9,0.5c0.2,0,0.4,0,0.5-0.1c0.5-0.3,0.7-0.9,0.4-1.4
			l-2.4-4.2c-0.3-0.5-0.9-0.7-1.4-0.4C367.2-42.1,367-41.5,367.3-41z"/>
		<path id="XMLID_836_" class="st0" d="M432.6,72.2c0.2,0.3,0.5,0.5,0.9,0.5c0.2,0,0.4,0,0.5-0.1c0.5-0.3,0.7-0.9,0.4-1.4L432,67
			c-0.3-0.5-0.9-0.7-1.4-0.4s-0.7,0.9-0.4,1.4L432.6,72.2z"/>
		<path id="XMLID_835_" class="st0" d="M437.4,80.5c0.2,0.3,0.5,0.5,0.9,0.5c0.2,0,0.4,0,0.5-0.1c0.5-0.3,0.7-0.9,0.4-1.4l-2.4-4.2
			c-0.3-0.5-0.9-0.7-1.4-0.4s-0.7,0.9-0.4,1.4L437.4,80.5z"/>
		<path id="XMLID_834_" class="st0" d="M266,72.5c0.2,0.1,0.3,0.1,0.5,0.1c0.4,0,0.7-0.2,0.9-0.5l2.4-4.2c0.3-0.5,0.1-1.1-0.4-1.4
			c-0.5-0.3-1.1-0.1-1.4,0.4l-2.4,4.2C265.3,71.6,265.5,72.2,266,72.5z"/>
		<path id="XMLID_833_" class="st0" d="M260.1,84.7c0.3-0.5,0.1-1.1-0.4-1.4c-0.5-0.3-1.1-0.1-1.4,0.4l-2.4,4.2
			c-0.3,0.5-0.1,1.1,0.4,1.4c0.2,0.1,0.3,0.1,0.5,0.1c0.4,0,0.7-0.2,0.9-0.5L260.1,84.7z"/>
		<path id="XMLID_832_" class="st0" d="M338.6-53.2c0.2,0.1,0.3,0.1,0.5,0.1c0.4,0,0.7-0.2,0.9-0.5l2.4-4.2c0.3-0.5,0.1-1.1-0.4-1.4
			s-1.1-0.1-1.4,0.4l-2.4,4.2C337.9-54.1,338.1-53.5,338.6-53.2z"/>
		<path id="XMLID_831_" class="st0" d="M319.2-19.7c0.2,0.1,0.3,0.1,0.5,0.1c0.4,0,0.7-0.2,0.9-0.5l2.4-4.2c0.3-0.5,0.1-1.1-0.4-1.4
			s-1.1-0.1-1.4,0.4l-2.4,4.2C318.6-20.6,318.7-19.9,319.2-19.7z"/>
		<path id="XMLID_830_" class="st0" d="M288.8,33c-0.5-0.3-1.1-0.1-1.4,0.4l-2.4,4.2c-0.3,0.5-0.1,1.1,0.4,1.4
			c0.2,0.1,0.3,0.1,0.5,0.1c0.4,0,0.7-0.2,0.9-0.5l2.4-4.2C289.5,33.9,289.3,33.3,288.8,33z"/>
		<path id="XMLID_829_" class="st0" d="M293.6,24.7c-0.5-0.3-1.1-0.1-1.4,0.4l-2.4,4.2c-0.3,0.5-0.1,1.1,0.4,1.4
			c0.2,0.1,0.3,0.1,0.5,0.1c0.4,0,0.7-0.2,0.9-0.5l2.4-4.2C294.3,25.6,294.1,24.9,293.6,24.7z"/>
		<path id="XMLID_828_" class="st0" d="M327.5-34c-0.5-0.3-1.1-0.1-1.4,0.4l-2.4,4.2c-0.3,0.5-0.1,1.1,0.4,1.4
			c0.2,0.1,0.3,0.1,0.5,0.1c0.4,0,0.7-0.2,0.9-0.5l2.4-4.2C328.2-33.1,328-33.7,327.5-34z"/>
		<path id="XMLID_827_" class="st0" d="M337.2-50.8c-0.5-0.3-1.1-0.1-1.4,0.4l-2.4,4.2c-0.3,0.5-0.1,1.1,0.4,1.4
			c0.2,0.1,0.3,0.1,0.5,0.1c0.4,0,0.7-0.2,0.9-0.5l2.4-4.2C337.8-49.9,337.7-50.5,337.2-50.8z"/>
		<path id="XMLID_826_" class="st0" d="M328.9-36.4c0.2,0.1,0.3,0.1,0.5,0.1c0.4,0,0.7-0.2,0.9-0.5l2.4-4.2c0.3-0.5,0.1-1.1-0.4-1.4
			s-1.1-0.1-1.4,0.4l-2.4,4.2C328.2-37.3,328.4-36.7,328.9-36.4z"/>
		<path id="XMLID_825_" class="st0" d="M298.5,16.3c-0.5-0.3-1.1-0.1-1.4,0.4l-2.4,4.2c-0.3,0.5-0.1,1.1,0.4,1.4
			c0.2,0.1,0.3,0.1,0.5,0.1c0.4,0,0.7-0.2,0.9-0.5l2.4-4.2C299.1,17.2,299,16.6,298.5,16.3z"/>
		<path id="XMLID_824_" class="st0" d="M303.3,7.9c-0.5-0.3-1.1-0.1-1.4,0.4l-2.4,4.2c-0.3,0.5-0.1,1.1,0.4,1.4
			c0.2,0.1,0.3,0.1,0.5,0.1c0.4,0,0.7-0.2,0.9-0.5l2.4-4.2C304,8.8,303.8,8.2,303.3,7.9z"/>
		<path id="XMLID_823_" class="st0" d="M308.2-0.5c-0.5-0.3-1.1-0.1-1.4,0.4l-2.4,4.2c-0.3,0.5-0.1,1.1,0.4,1.4
			c0.2,0.1,0.3,0.1,0.5,0.1c0.4,0,0.7-0.2,0.9-0.5l2.4-4.2C308.8,0.4,308.6-0.2,308.2-0.5z"/>
		<path id="XMLID_822_" class="st0" d="M270.8,64.1c0.2,0.1,0.3,0.1,0.5,0.1c0.4,0,0.7-0.2,0.9-0.5l2.4-4.2c0.3-0.5,0.1-1.1-0.4-1.4
			c-0.5-0.3-1.1-0.1-1.4,0.4l-2.4,4.2C270.2,63.2,270.4,63.9,270.8,64.1z"/>
		<path id="XMLID_821_" class="st0" d="M261.2,80.9c0.2,0.1,0.3,0.1,0.5,0.1c0.4,0,0.7-0.2,0.9-0.5l2.4-4.2c0.3-0.5,0.1-1.1-0.4-1.4
			c-0.5-0.3-1.1-0.1-1.4,0.4l-2.4,4.2C260.5,80,260.7,80.6,261.2,80.9z"/>
		<path id="XMLID_820_" class="st0" d="M251.5,97.7c0.2,0.1,0.3,0.1,0.5,0.1c0.4,0,0.7-0.2,0.9-0.5l2.4-4.2c0.3-0.5,0.1-1.1-0.4-1.4
			c-0.5-0.3-1.1-0.1-1.4,0.4l-2.4,4.2C250.8,96.8,251,97.4,251.5,97.7z"/>
		<path id="XMLID_819_" class="st0" d="M350-89.8c0.6,0,1-0.5,1-1V-96c0-0.6-0.5-1-1-1c-0.6,0-1,0.5-1,1v5.1
			C349-90.3,349.4-89.8,350-89.8z"/>
		<path id="XMLID_818_" class="st0" d="M350-110.4c0.6,0,1-0.5,1-1v-5.1c0-0.6-0.5-1-1-1c-0.6,0-1,0.5-1,1v5.1
			C349-110.8,349.4-110.4,350-110.4z"/>
		<path id="XMLID_817_" class="st0" d="M350-100.1c0.6,0,1-0.5,1-1v-5.1c0-0.6-0.5-1-1-1c-0.6,0-1,0.5-1,1v5.1
			C349-100.6,349.4-100.1,350-100.1z"/>
		<path id="XMLID_816_" class="st0" d="M217.4,125.3l-4.3,2.5c-0.5,0.3-0.7,0.9-0.4,1.4c0.2,0.3,0.5,0.5,0.9,0.5
			c0.2,0,0.4,0,0.5-0.1l4.3-2.5c0.5-0.3,0.7-0.9,0.4-1.4C218.6,125.2,217.9,125.1,217.4,125.3z"/>
		<path id="XMLID_815_" class="st0" d="M208.9,130.3l-4.3,2.5c-0.5,0.3-0.7,0.9-0.4,1.4c0.2,0.3,0.5,0.5,0.9,0.5
			c0.2,0,0.4,0,0.5-0.1l4.4-2.6c0.5-0.3,0.7-0.9,0.4-1.4C210,130.2,209.4,130,208.9,130.3z"/>
		<path id="XMLID_814_" class="st0" d="M226,120.4l-4.3,2.5c-0.5,0.3-0.7,0.9-0.4,1.4c0.2,0.3,0.5,0.5,0.9,0.5c0.2,0,0.4,0,0.5-0.1
			l4.3-2.5c0.5-0.3,0.7-0.9,0.4-1.4C227.1,120.3,226.5,120.1,226,120.4z"/>
		<path id="XMLID_813_" class="st0" d="M234.5,115.5l-4.3,2.5c-0.5,0.3-0.7,0.9-0.4,1.4c0.2,0.3,0.5,0.5,0.9,0.5
			c0.2,0,0.4,0,0.5-0.1l4.3-2.5c0.5-0.3,0.7-0.9,0.4-1.4C235.6,115.4,235,115.2,234.5,115.5z"/>
		<path id="XMLID_812_" class="st0" d="M473,122.2l4.3,2.5c0.2,0.1,0.3,0.1,0.5,0.1c0.4,0,0.7-0.2,0.9-0.5c0.3-0.5,0.1-1.1-0.4-1.4
			l-4.3-2.5c-0.5-0.3-1.1-0.1-1.4,0.4C472.4,121.3,472.5,121.9,473,122.2z"/>
		<path id="XMLID_811_" class="st0" d="M490,132l4.3,2.5c0.2,0.1,0.3,0.1,0.5,0.1c0.4,0,0.7-0.2,0.9-0.5c0.3-0.5,0.1-1.1-0.4-1.4
			l-4.3-2.5c-0.5-0.3-1.1-0.1-1.4,0.4C489.4,131.1,489.6,131.8,490,132z"/>
		<path id="XMLID_810_" class="st0" d="M469.8,118l-4.3-2.5c-0.5-0.3-1.1-0.1-1.4,0.4s-0.1,1.1,0.4,1.4l4.3,2.5
			c0.2,0.1,0.3,0.1,0.5,0.1c0.4,0,0.7-0.2,0.9-0.5C470.4,118.9,470.3,118.3,469.8,118z"/>
		<path id="XMLID_809_" class="st0" d="M481.5,127.1l4.3,2.5c0.2,0.1,0.3,0.1,0.5,0.1c0.4,0,0.7-0.2,0.9-0.5
			c0.3-0.5,0.1-1.1-0.4-1.4l-4.3-2.5c-0.5-0.3-1.1-0.1-1.4,0.4C480.9,126.2,481,126.8,481.5,127.1z"/>
		<path id="XMLID_797_" class="st0" d="M515.9,131.1V-31.1c3.9-2.2,6.5-6.3,6.5-11.1c0-7-5.7-12.7-12.7-12.7c-2.4,0-4.6,0.7-6.5,1.8
			l-140.5-81.1c0-0.1,0-0.1,0-0.2c0-7-5.7-12.7-12.7-12.7s-12.7,5.7-12.7,12.7c0,0.1,0,0.1,0,0.2L196.8-53.1
			c-1.9-1.1-4.1-1.8-6.5-1.8c-7,0-12.7,5.7-12.7,12.7c0,4.8,2.6,8.9,6.5,11.1v162.3c-3.9,2.2-6.5,6.3-6.5,11.1
			c0,7,5.7,12.7,12.7,12.7c2.4,0,4.6-0.7,6.5-1.8l140.6,81.2c0,0.1,0,0.1,0,0.2c0,7,5.7,12.7,12.7,12.7s12.7-5.7,12.7-12.7
			c0-0.1,0-0.1,0-0.2l140.6-81.2c1.9,1.1,4.1,1.8,6.5,1.8c7,0,12.7-5.7,12.7-12.7C522.4,137.5,519.8,133.3,515.9,131.1z
			 M365.2,216.9c-0.4-0.4-1.1-0.3-1.4,0.1l-3.2,3.7c-0.2,0.2-0.2,0.4-0.2,0.7l-3.8,2.2c-0.1-0.1-0.2-0.1-0.4-0.2v-30.9
			c7.6-2.4,13.3-9.1,14.2-17.2l35.4-6.8l-0.1,0.1c-0.4,0.4-0.3,1.1,0.1,1.4c0.2,0.2,0.4,0.3,0.7,0.3c0.3,0,0.6-0.1,0.8-0.4l1.8-2
			l66-12.7l-110,63.5l0.3-0.3C365.7,217.9,365.6,217.3,365.2,216.9z M339.7,221.4c0-0.2-0.1-0.5-0.2-0.7l-3.2-3.7
			c-0.4-0.4-1-0.5-1.4-0.1c-0.4,0.4-0.5,1-0.1,1.4l0.3,0.3L225,155.2l66,12.7l1.8,2c0.2,0.2,0.5,0.4,0.8,0.4c0.2,0,0.5-0.1,0.7-0.3
			c0.4-0.4,0.5-1,0.1-1.4l-0.1-0.1l35.4,6.8c0.9,8.1,6.6,14.8,14.2,17.2v30.9c-0.1,0.1-0.2,0.1-0.4,0.2L339.7,221.4z M206.7-44.6
			c0.2,0.1,0.3,0.2,0.5,0.2c0.1,0,0.1,0,0.2,0l4.8-0.9c0.6-0.1,0.9-0.6,0.8-1.2s-0.6-0.9-1.2-0.8l-0.4,0.1l110-63.5l-44,50.8
			l-2.7,0.5c-0.6,0.1-0.9,0.6-0.8,1.2c0.1,0.5,0.5,0.8,1,0.8c0.1,0,0.1,0,0.2,0h0.1l-23.6,27.3c-2.5-1.1-5.3-1.7-8.1-1.7
			c-5.3,0-10.2,2.1-13.8,5.4L202.9-42c0-0.1,0-0.1,0-0.2s0-0.1,0-0.2L206.7-44.6z M487.8-45.4l4.8,0.9c0.1,0,0.1,0,0.2,0
			c0.2,0,0.4-0.1,0.5-0.2l3.8,2.2c0,0.1,0,0.1,0,0.2s0,0.1,0,0.2l-26.7,15.4c-3.6-3.3-8.5-5.4-13.8-5.4c-2.9,0-5.6,0.6-8.1,1.7
			l-23.6-27.2h0.1c0.1,0,0.1,0,0.2,0c0.5,0,0.9-0.3,1-0.8c0.1-0.6-0.3-1.1-0.8-1.2l-2.6-0.5l-44-50.8l110,63.5l-0.4-0.1
			c-0.6-0.1-1.1,0.3-1.2,0.8C486.8-46.1,487.2-45.5,487.8-45.4z M423.3,149.8c-0.4-0.4-1.1-0.3-1.4,0.1l-3.1,3.5l-50.7,9.8
			c-0.8-1.5-1.8-2.9-2.9-4.1l87-150.6c1.4,0.3,2.9,0.5,4.4,0.5c0.2,0,0.4,0,0.6,0l16.9,48.8l-1.5,4.4c-0.2,0.5,0.1,1.1,0.6,1.3
			c0.1,0,0.2,0.1,0.3,0.1c0.4,0,0.8-0.3,1-0.7l0.7-2l25.2,72.8c-0.4,0.4-0.7,0.8-1,1.3c-0.4-0.1-0.8,0.1-1.1,0.5
			c-0.2,0.4-0.2,0.9,0.1,1.2c-0.2,0.5-0.5,1-0.6,1.5L422,152.8l1.4-1.6C423.8,150.8,423.7,150.2,423.3,149.8z M281.2,153.5l-3.1-3.5
			c-0.4-0.4-1-0.5-1.4-0.1s-0.5,1-0.1,1.4l1.4,1.6l-75.7-14.6c-0.2-0.5-0.4-1-0.6-1.5c0.3-0.3,0.4-0.8,0.1-1.2
			c-0.2-0.4-0.7-0.6-1.1-0.5c-0.3-0.5-0.7-0.9-1-1.3L224.9,61l0.7,2c0.1,0.4,0.5,0.7,1,0.7c0.1,0,0.2,0,0.3-0.1
			c0.5-0.2,0.8-0.8,0.6-1.3l-1.5-4.4L242.9,9c0.2,0,0.4,0,0.6,0c1.5,0,3-0.2,4.4-0.5l87,150.6c-1.1,1.2-2.1,2.6-3,4.1L281.2,153.5z
			 M294.8-61.3l4.6-0.9c0.6-0.1,0.9-0.6,0.8-1.2c-0.1-0.6-0.6-0.9-1.2-0.8l-2,0.4l50.4-58.2c0.5,0.1,1,0.2,1.6,0.2v0.1
			c0,0.6,0.5,1,1,1c0.6,0,1-0.5,1-1v-0.1c0.5,0,1.1-0.1,1.6-0.2l50.5,58.3l-2-0.4c-0.6-0.1-1.1,0.3-1.2,0.8
			c-0.1,0.6,0.3,1.1,0.8,1.2l4.6,0.9l33.8,39.1c-0.9,1.4-1.6,3-2.1,4.6H263.1c-0.5-1.6-1.2-3.2-2.1-4.6L294.8-61.3z M418,42.8
			l-0.6-1c-0.3-0.5-0.9-0.7-1.4-0.4s-0.7,0.9-0.4,1.4l1.2,2.1L379,110.5h-2.4c-0.6,0-1,0.5-1,1s0.5,1,1,1h1.2L354.4,153
			c-1.4-0.3-2.9-0.5-4.4-0.5s-3,0.2-4.4,0.5l-23.4-40.5h1.2c0.6,0,1-0.5,1-1s-0.5-1-1-1H321l-37.9-65.6l1.2-2.1
			c0.3-0.5,0.1-1.1-0.4-1.4c-0.5-0.3-1.1-0.1-1.4,0.4l-0.6,1L258.5,2.3c2-2.2,3.6-4.8,4.5-7.7h46.7l-0.6,1c-0.3,0.5-0.1,1.1,0.4,1.4
			c0.2,0.1,0.3,0.1,0.5,0.1c0.4,0,0.7-0.2,0.9-0.5l1.2-2.1h75.7l1.2,2.1c0.2,0.3,0.5,0.5,0.9,0.5c0.2,0,0.4,0,0.5-0.1
			c0.5-0.3,0.7-0.9,0.4-1.4l-0.6-1h46.7c0.9,2.9,2.5,5.5,4.5,7.7L418,42.8z M481.6,42.2l0.9-2.5c0.2-0.5-0.1-1.1-0.6-1.3
			s-1.1,0.1-1.3,0.6v0.1L468.8,5c5-3.7,8.3-9.7,8.3-16.4c0-1.5-0.2-3-0.5-4.4l26.7-15.4c0.1,0.1,0.2,0.1,0.4,0.2v4.3
			c-0.2,0.1-0.4,0.3-0.5,0.5l-1.6,4.7c-0.2,0.5,0.1,1.1,0.6,1.3c0.1,0,0.2,0.1,0.3,0.1c0.4,0,0.8-0.3,1-0.7l0.1-0.4v127L481.6,42.2z
			 M196.4-21.3l0.1,0.4c0.1,0.4,0.5,0.7,1,0.7c0.1,0,0.2,0,0.3-0.1c0.5-0.2,0.8-0.8,0.6-1.3l-1.6-4.7c-0.1-0.2-0.3-0.4-0.5-0.5v-4.3
			c0.1-0.1,0.2-0.1,0.4-0.2l26.7,15.4c-0.3,1.4-0.5,2.9-0.5,4.4c0,6.7,3.3,12.7,8.3,16.4L219.5,39v-0.1c-0.2-0.5-0.8-0.8-1.3-0.6
			s-0.8,0.8-0.6,1.3l0.9,2.6l-22,63.5v-127H196.4z"/>
	</g>
</g>
</svg>
